<svg id="Lag_1" data-name="Lag 1" xmlns="http://www.w3.org/2000/svg" viewBox="0 0 84.05 84.05"><defs><style>.cls-1{fill:#f2f2f2;}</style></defs><title>facebook</title><path class="cls-1" d="M42.11,0C52.27,0,62.43,0,72.58,0,80.13.08,84,3.88,84,11.38q.08,30.72,0,61.44C84,80.06,80.1,84,72.9,84q-31,.09-61.94,0C4.09,84,.08,80,.05,73.15q-.11-31,0-61.94C.07,4,3.93.1,11.14,0,21.46,0,31.79,0,42.11,0ZM66,40c-2.65,0-5.12,0-7.6,0-.9,0-1.85.3-2.36-1.1-1.76-4.8.72-8.53,5.9-8.91,1.61-.12,4.47,1.33,4.09-2.35-.27-2.69,1.34-5.86-3.25-7.08-9.84-2.62-16.79,3-16.63,14.37.06,4-.7,5.91-5,5.11-4.07-.75-3.32,2.37-3,4.38s-2.23,6.2,2.8,5.51c4.84-.66,5.34,1.53,5.18,5.52-.3,7,.22,14-.2,21-.25,4.14,2,3.85,4.54,3.54,2.28-.29,5.9,1.89,5.66-3.4-.33-7.65,0-15.33-.14-23-.06-2.71.55-4.14,3.48-3.56,3.86.76,5.39-1.05,5.58-4.71A42.88,42.88,0,0,1,66,40Z"/></svg>
