<svg id="Lag_1" data-name="Lag 1" xmlns="http://www.w3.org/2000/svg" viewBox="0 0 232 217"><defs><style>.cls-1{fill:#f2f2f2;}</style></defs><title>Tegnebræt 1</title><path class="cls-1" d="M140.47,131.75q-32.25,0-64.5,0c-1.83,0-2.75.09-2.1,2.38a53.66,53.66,0,0,1,1.3,7.62c.18,1.3.71,1.8,2.08,1.72,2.16-.13,4.33,0,6.5,0h108.5c6.2,0,10.55,2.71,12.26,7.58a11.45,11.45,0,0,1-10.74,15.55q-64.12.07-128.25,0c-5.88,0-10.48-4.23-11.53-10.45q-6-36-12-71.93Q37.42,56.58,32.87,29c-.23-1.43-.66-2.06-2.31-2-5,.13-10,.17-15,0a11.41,11.41,0,0,1-11-10.36A11.62,11.62,0,0,1,12.74,4.29a16.14,16.14,0,0,1,4.69-.53q11.75,0,23.5,0c7.8,0,12,3.74,13.1,11.51.49,3.29,1.17,6.56,1.59,9.86.21,1.59.91,2.12,2.4,1.89a7.45,7.45,0,0,1,1.25,0h156c8.61,0,14.13,5.73,13.11,13.58-.31,2.4-.68,4.78-1,7.17q-4.71,32.88-9.4,65.75c-.35,2.47-.68,4.94-1.05,7.41-1,6.87-5.49,10.78-12.44,10.83-8.5.06-17,0-25.5,0ZM181,50.42c-6.74,0-13.49,0-20.23,0-1.65,0-2.31.27-2.27,2.13q.18,9.5,0,19c0,1.86.63,2.14,2.27,2.13q18.62-.11,37.22,0c1.7,0,2.25-.48,2.46-2.16.79-6.35,1.66-12.69,2.72-19,.29-1.73,0-2.09-1.68-2.07C194.7,50.47,187.87,50.42,181,50.42Zm-100.67,0c-6.24,0-12.48,0-18.72,0-1.5,0-1.8.42-1.53,1.86,1.07,5.88,2,11.78,3,17.67.64,3.68.66,3.67,4.25,3.66,10.4,0,20.79,0,31.19,0,1.49,0,2-.3,2-1.89q-.15-9.74,0-19.46c0-1.61-.48-1.91-2-1.89C92.51,50.47,86.44,50.42,80.37,50.42Zm98.15,34.83c-5.82,0-11.65.12-17.46-.06-2.19-.06-2.57.66-2.52,2.65.13,6.07.11,12.14,0,18.21,0,1.87.33,2.53,2.4,2.5q16-.17,31.94,0c1.8,0,2.39-.47,2.62-2.25.78-6.35,1.66-12.69,2.72-19,.29-1.77-.05-2.11-1.73-2.09C190.5,85.3,184.51,85.25,178.52,85.25Zm-49-34.83c-5.16,0-10.33,0-15.49,0-1.43,0-2.06.2-2,1.86q.17,9.75,0,19.5c0,1.67.61,1.87,2,1.86q15.5-.08,31,0c1.45,0,2-.23,2-1.86q-.15-9.75,0-19.5c0-1.64-.53-1.89-2-1.86C139.9,50.47,134.73,50.42,129.56,50.42Zm.07,34.83c-5.25,0-10.5,0-15.74,0-1.38,0-1.85.34-1.84,1.79q.12,9.87,0,19.73c0,1.45.44,1.8,1.83,1.79q15.74-.07,31.48,0c1.28,0,1.68-.32,1.67-1.65-.07-6.58-.08-13.16,0-19.73,0-1.54-.38-2-1.92-1.93C140,85.32,134.79,85.25,129.63,85.25Zm-46.36,0c-5.07,0-10.14.08-15.21,0-1.76,0-2.36.38-2,2.19,1.16,6.45,2.27,12.92,3.29,19.39.21,1.34.66,1.75,2,1.74q13.71-.09,27.43,0c1.46,0,1.77-.44,1.76-1.81q-.11-9.85,0-19.71c0-1.41-.36-1.81-1.79-1.79C93.59,85.31,88.43,85.25,83.27,85.25Z"/><path class="cls-1" d="M188.07,178.36a17.42,17.42,0,1,1-17.71,17.12A17.35,17.35,0,0,1,188.07,178.36Z"/><path class="cls-1" d="M83.36,178.36a17.42,17.42,0,1,1-17.8,17.1A17.38,17.38,0,0,1,83.36,178.36Z"/></svg>